<svg xmlns="http://www.w3.org/2000/svg" viewBox="0 0 250 250"><defs><style>.cls-1{fill:#fff;}.cls-2{fill:none;stroke-miterlimit:10;}.cls-2,.cls-3{stroke:#fff;}</style></defs><title>buttons_1</title><g id="Layer_2" data-name="Layer 2"><g id="squares_copy" data-name="squares copy"><path class="cls-1" d="M119,1V119H1V1H119m1-1H0V120H120V0Z"/><path class="cls-1" d="M119,131V249H1V131H119m1-1H0V250H120V130Z"/><path class="cls-1" d="M249,131V249H131V131H249m1-1H130V250H250V130Z"/><path class="cls-1" d="M249,1V119H131V1H249m1-1H130V120H250V0Z"/></g><g id="Layer_4_copy" data-name="Layer 4 copy"><path class="cls-1" d="M101.5,43.5v46h-83v-46h83m1-1h-85v48h85v-48Z"/><path class="cls-1" d="M101.5,34.5v7h-83v-7h83m1-1h-85v9h85v-9Z"/><path class="cls-1" d="M35.5,30.5v2h-8v-2h8m1-1h-10v4h10v-4Z"/><path class="cls-1" d="M69.5,54.5a12,12,0,1,1-12,12,12,12,0,0,1,12-12m0-1a13,13,0,1,0,13,13,13,13,0,0,0-13-13Z"/><path class="cls-1" d="M69.5,50.5a16,16,0,1,1-16,16,16,16,0,0,1,16-16m0-1a17,17,0,1,0,17,17,17,17,0,0,0-17-17Z"/><line class="cls-2" x1="60" y1="208.66" x2="60" y2="162.58"/><path class="cls-1" d="M60,152.75a9.83,9.83,0,1,0,9.83,9.83A9.83,9.83,0,0,0,60,152.75ZM56.73,157c-1.81.92-2.67,2.88-3.29,1.67s.37-2.94,2.18-3.86,3.79-.68,4.4.53S58.55,156,56.73,157Z"/><path class="cls-2" d="M28.81,195.84C19.12,199.13,13,203.93,13,209.28c0,9.92,21,18,47,18s47-8.05,47-18c0-5.35-6.12-10.15-15.81-13.44"/><path class="cls-2" d="M86.9,203.13c2.81,1.8,4.43,3.9,4.43,6.15,0,6.61-14,12-31.33,12s-31.33-5.37-31.33-12c0-2.25,1.62-4.35,4.43-6.15"/><path class="cls-2" d="M33.1,203.13c-2.81,1.8-4.43,3.9-4.43,6.15,0,6.61,14,12,31.33,12s31.33-5.37,31.33-12c0-2.25-1.62-4.35-4.43-6.15"/><path class="cls-2" d="M79.45,206.38a4.11,4.11,0,0,1,1.44,2.9c0,4.41-9.35,8-20.89,8s-20.89-3.57-20.89-8a4.11,4.11,0,0,1,1.44-2.9"/><path class="cls-1" d="M203.13,65.68a31,31,0,1,0-6.08,6.7l30.19,30.19,6.39-6.4Zm-8.79-.28a24,24,0,1,1,0-33.94A24,24,0,0,1,194.34,65.4Z"/><path class="cls-2" d="M228.5,235.5c-11.39-.64-23.41-1-36-1-12.22,0-23.91.37-35,1a233.7,233.7,0,0,0,2-36,234.73,234.73,0,0,0-7-52,297,297,0,0,0,65,0q4-.45,8-1a250.19,250.19,0,0,0,3,89Z"/><path class="cls-3" d="M166.73,166.55l-.94,0-.36-5.58a4.93,4.93,0,0,1-.85.65,6,6,0,0,1-1,.5l-.05-.84a5.89,5.89,0,0,0,1.33-.91,3.24,3.24,0,0,0,.77-1l.61,0Z"/><path class="cls-2" d="M170.6,163.81a22.54,22.54,0,0,1,9.25-2.57c7-.33,10.24,3,17.26,3.26a25.46,25.46,0,0,0,11.94-2.71"/><path class="cls-3" d="M169.19,183l.06.84-5.08.27a1.4,1.4,0,0,1,.07-.61,3.32,3.32,0,0,1,.56-1,9.19,9.19,0,0,1,1.17-1.14,10.41,10.41,0,0,0,1.59-1.6,1.74,1.74,0,0,0,.37-1.08,1.15,1.15,0,0,0-.45-.86,1.58,1.58,0,0,0-1.07-.3,1.51,1.51,0,0,0-1.07.44A1.35,1.35,0,0,0,165,179l-1,0a2.17,2.17,0,0,1,.65-1.58,2.69,2.69,0,0,1,1.71-.62,2.57,2.57,0,0,1,1.79.48,1.84,1.84,0,0,1,.73,1.38,1.94,1.94,0,0,1-.13.85,3.32,3.32,0,0,1-.57.9,14.87,14.87,0,0,1-1.37,1.34c-.54.47-.88.79-1,.95a2.6,2.6,0,0,0-.36.5Z"/><path class="cls-2" d="M171.71,181.14a22.53,22.53,0,0,1,9.26-2.58c7-.33,10.24,3,17.25,3.26a25.44,25.44,0,0,0,11.94-2.71"/><path class="cls-3" d="M165.29,199.5l.93-.17a1.94,1.94,0,0,0,.62,1,1.49,1.49,0,0,0,1,.28,1.54,1.54,0,0,0,1.09-.49,1.35,1.35,0,0,0,.39-1.08,1.3,1.3,0,0,0-.49-1,1.47,1.47,0,0,0-1.1-.33,2.38,2.38,0,0,0-.66.13l.06-.78h.15a2.09,2.09,0,0,0,1.06-.35,1,1,0,0,0,.43-.93,1.07,1.07,0,0,0-.4-.78,1.47,1.47,0,0,0-1.83.1,1.61,1.61,0,0,0-.41,1l-1-.11a2.17,2.17,0,0,1,.7-1.4,2.31,2.31,0,0,1,1.49-.57,2.74,2.74,0,0,1,1.18.19,1.92,1.92,0,0,1,.85.64,1.65,1.65,0,0,1,.34.91,1.45,1.45,0,0,1-.21.86,1.87,1.87,0,0,1-.76.64,1.84,1.84,0,0,1,1.1.55,1.78,1.78,0,0,1,.45,1.13,2,2,0,0,1-.63,1.63,2.71,2.71,0,0,1-1.81.74,2.53,2.53,0,0,1-1.72-.47A2.13,2.13,0,0,1,165.29,199.5Z"/><path class="cls-2" d="M172.82,198.46a22.39,22.39,0,0,1,9.26-2.57c7-.34,10.24,3,17.25,3.26a25.6,25.6,0,0,0,11.94-2.72"/><path class="cls-3" d="M169.54,218.55l-.11-1.71-3.34.18-.05-.81,3.21-4.81.77,0,.3,4.63,1-.06,0,.81-1,0,.11,1.71Zm-.17-2.51-.2-3.22-2.2,3.34Z"/><path class="cls-2" d="M173.93,215.78a22.43,22.43,0,0,1,9.26-2.57c7-.33,10.24,3,17.25,3.26a25.41,25.41,0,0,0,11.94-2.71"/></g></g></svg>